<?xml version="1.0" encoding="UTF-8" standalone="no"?>
<svg xmlns:svg="http://www.w3.org/2000/svg" xmlns="http://www.w3.org/2000/svg" xmlns:xlink="http://www.w3.org/1999/xlink" xmlns:inkscape="http://www.inkscape.org/namespaces/inkscape" version="1.0" width="551" height="535" id="svg2">
  <defs id="defs4">
    <linearGradient id="linearGradient4835">
      <stop id="stop4837" style="stop-color: rgb(255, 255, 255); stop-opacity: 0;" offset="0"/>
      <stop id="stop4839" style="stop-color: rgb(255, 255, 255); stop-opacity: 0.635294;" offset="1"/>
    </linearGradient>
    <linearGradient id="linearGradient4793">
      <stop id="stop4795" style="stop-color: rgb(0, 0, 0); stop-opacity: 0;" offset="0"/>
      <stop id="stop4797" style="stop-color: rgb(0, 0, 0); stop-opacity: 0.2;" offset="1"/>
    </linearGradient>
    <linearGradient id="linearGradient4777">
      <stop id="stop4779" style="stop-color: rgb(0, 0, 0); stop-opacity: 0.1451;" offset="0"/>
      <stop id="stop4781" style="stop-color: rgb(0, 0, 0); stop-opacity: 0;" offset="1"/>
    </linearGradient>
    <filter id="filter3326">
      <feGaussianBlur inkscape:collect="always" stdDeviation="2.6472166" id="feGaussianBlur3328"/>
    </filter>
    <linearGradient id="linearGradient3486">
      <stop id="stop3488" style="stop-color: rgb(0, 0, 0); stop-opacity: 0.502;" offset="0"/>
      <stop id="stop3490" style="stop-color: rgb(255, 255, 255); stop-opacity: 1;" offset="1"/>
    </linearGradient>
    <filter id="filter4517">
      <feGaussianBlur inkscape:collect="always" stdDeviation="1.3154426" id="feGaussianBlur4519"/>
    </filter>
    <filter id="filter4638">
      <feGaussianBlur id="feGaussianBlur4640" stdDeviation="1.1397656" inkscape:collect="always"/>
    </filter>
    <radialGradient cx="244.97728" cy="276.31491" r="217.6875" fx="244.97728" fy="276.31491" id="radialGradient4712" xlink:href="#linearGradient3486" gradientUnits="userSpaceOnUse" gradientTransform="matrix(1.19762, 0, 0, 1.2338, -49.386, -65.7069)"/>
    <filter id="filter4773">
      <feGaussianBlur id="feGaussianBlur4775" stdDeviation="1.5496228" inkscape:collect="always"/>
    </filter>
    <linearGradient x1="352.8949" y1="175.32442" x2="324.35019" y2="158.35384" id="linearGradient4783" xlink:href="#linearGradient4777" gradientUnits="userSpaceOnUse"/>
    <radialGradient cx="390.52817" cy="105.77066" r="118.78125" fx="390.52817" fy="105.77066" id="radialGradient4832" xlink:href="#linearGradient4793" gradientUnits="userSpaceOnUse" gradientTransform="matrix(-0.277285, 0.236234, -0.420973, -0.494127, 560.776, 53.5788)"/>
    <radialGradient cx="235.58434" cy="137.56808" r="268.90195" fx="235.58434" fy="137.56808" id="radialGradient4841" xlink:href="#linearGradient4835" gradientUnits="userSpaceOnUse" gradientTransform="matrix(0.238287, -0.271638, 0.0847898, 0.0743795, 222.351, 262.493)"/>
    <filter id="filter4871">
      <feGaussianBlur id="feGaussianBlur4873" stdDeviation="8.1240593" inkscape:collect="always"/>
    </filter>
  </defs>
  <path d="M 412.16854,218.15914 C 379.24636,180.99249 349.57792,156.98715 305.65942,219.57725 C 279.52595,256.82117 122.69744,470.17773 93.920162,504.16239 C 85.56097,514.03419 80.664076,520.89484 74.245956,524.87146 C 74.256126,511.36283 182.57673,339.82398 212.89071,290.11257 C 249.30349,230.39983 248.14737,233.88692 243.78991,233.90272 C 237.62115,233.92509 225.07431,243.02462 205.99617,263.37162 C 171.15829,300.52652 67.980346,438.81008 60.867026,436.67724 C 63.338226,426.63211 144.05036,302.86253 180.69716,251.66277 C 212.28828,207.52638 200.21253,204.16234 182.10529,208.47107 C 104.95461,226.87137 12.682123,271.35549 9.698,269.75057 C 10.813869,267.44718 320.45952,49.705306 361.82441,45.542656 C 366.63982,45.058076 376.79996,36.469766 394.90524,29.316506 C 414.56,21.551066 427.78793,15.234746 431.06028,17.231686 C 416.71694,37.338446 409.16462,41.384836 409.037,47.870636 C 408.82802,58.491026 405.0481,75.672236 400.90885,81.158046 C 480.92504,134.46286 512.14367,316.21474 535.00272,462.40238 C 540.45791,497.10059 545.51337,523.15783 546.80268,538.641 C 540.04893,521.26323 476.07124,290.30048 412.16854,218.15914 z" id="path3317" style="fill-opacity: 0.333333;"/>
  <path d="M 413.66855,218.15915 C 380.74637,180.99249 351.07792,156.98715 307.15943,219.57726 C 281.02596,256.82118 124.19745,470.17774 95.420165,504.1624 C 87.060973,514.0342 82.164079,520.89485 75.745959,524.87147 C 75.756129,511.36284 184.07674,339.82399 214.39071,290.11258 C 250.8035,230.39984 249.64739,233.88693 245.28992,233.90273 C 239.12115,233.9251 226.57431,243.02463 207.49617,263.37163 C 172.65829,300.52653 69.480349,438.81008 62.367029,436.67724 C 64.838229,426.63211 145.55036,302.86254 182.19716,251.66278 C 213.78829,207.52639 201.71254,204.16235 183.60529,208.47108 C 106.45462,226.87138 14.18213,271.3555 11.198,269.75058 C 12.31387,267.44719 321.95952,49.705306 363.32441,45.542656 C 368.13983,45.058076 378.29997,36.469766 396.40525,29.316506 C 416.06001,21.551066 429.28794,15.234746 432.56029,17.231686 C 418.21694,37.338446 410.66463,41.384836 410.537,47.870636 C 410.32803,58.491026 406.54811,75.672236 402.40885,81.158046 C 482.42505,134.46286 513.64367,316.21475 536.50273,462.40239 C 541.95792,497.10059 547.01338,523.15783 548.30268,538.641 C 541.54894,521.26323 477.57125,290.30049 413.66855,218.15915 z" id="path3293" style="fill-opacity: 0.627451; filter: url(#filter3326);"/>
  <path d="M 409.4182,207.90913 C 376.49602,170.74247 346.82758,146.73713 302.90908,209.32724 C 276.77561,246.57116 119.9471,459.92771 91.169817,493.91237 C 82.810633,503.78417 77.913739,510.64482 71.495619,514.62144 C 71.505789,501.11281 179.82639,329.57397 210.14037,279.86256 C 246.55315,220.14982 245.39703,223.63691 241.03957,223.65271 C 234.87081,223.67508 222.32397,232.77461 203.24583,253.12161 C 168.40795,290.27651 65.230009,428.56005 58.116689,426.42721 C 60.587889,416.38209 141.30002,292.61252 177.94682,241.41276 C 209.53794,197.27637 197.46219,193.91233 179.35495,198.22106 C 102.20427,216.62136 9.931786,261.10548 6.947663,259.50056 C 8.063532,257.19717 317.70918,39.455291 359.07407,35.292641 C 363.88948,34.808061 374.04962,26.219751 392.1549,19.066491 C 411.80966,11.301051 425.03759,4.9847312 428.30994,6.9816712 C 413.9666,27.088431 406.41428,31.134821 406.28666,37.620621 C 406.07768,48.241011 402.29776,65.422221 398.15851,70.908031 C 478.1747,124.21284 509.39333,305.96473 532.25238,452.15236 C 537.70757,486.85056 542.76303,512.9078 544.05234,528.39097 C 537.29859,511.0132 473.3209,280.05047 409.4182,207.90913 z" id="path3287" style="fill: rgb(255, 255, 255); stroke: rgb(110, 110, 110); stroke-width: 1.5;"/>
  <path d="M 369.68194,43.72421 C 361.05783,44.56946 355.80263,44.84181 349.94119,47.20878 C 321.0342,58.882 295.07449,77.33996 268.25823,93.53775 C 204.47385,133.64807 142.00159,175.77354 80.111522,218.75514 C 116.08971,204.76035 152.66026,191.3193 190.79902,184.91139 C 202.3928,185.01864 211.90075,198.4354 206.64277,209.22389 C 199.69213,233.00554 181.09919,250.45906 168.5633,271.13716 C 158.9205,284.95139 149.45414,298.90387 140.08027,312.91139 C 164.93707,281.85825 189.51743,250.16284 219.16342,223.61788 C 226.34947,217.95391 234.99148,211.19746 244.64277,212.72389 C 252.10167,214.66187 255.63334,224.4677 250.67402,230.50514 C 240.48394,249.84761 227.93249,268.02707 216.90943,286.93216 C 189.36812,331.55972 161.5989,375.91001 134.48652,420.75514 C 192.80277,344.08677 215.5073,319.78705 271.90653,241.70448 C 284.97538,225.22287 338.96887,157.35021 361.11152,160.06764 C 385.97464,163.51124 403.73808,183.74355 418.74649,201.99643 C 458.38379,251.04619 479.4501,311.46263 502.20527,369.53639 C 506.77067,381.87336 511.15689,394.27091 515.48652,406.69264 C 501.08748,319.66806 480.13673,235.9727 443.81358,155.09981 C 419.50847,130.25872 411.77023,120.36297 383.96982,103.05797 C 380.3438,99.578425 341.4367,130.64903 341.4367,130.64903 L 369.68194,43.72421 z" id="path3431" style="fill: url(#radialGradient4712) rgb(0, 0, 0); filter: url(#filter4871);"/>
  <path d="M 395.53125,71.90625 C 316.13989,125.13108 243.75709,176.38874 243.21875,177.5 C 246.20287,179.10492 338.47432,134.61905 415.625,116.21875 C 419.45131,115.30826 423.00484,114.75698 425.9375,114.84375 C 418.04797,104.77863 409.57936,96.144144 400.4375,89.25 C 397.46486,87.86954 394.72943,86.324669 392.3125,84.53125 L 395.53125,71.90625 z M 433.34375,125 C 431.86998,131.81514 426.1971,142.67114 414.21875,159.40625 C 409.04653,166.63243 402.82074,175.59798 396.21875,185.21875 C 402.01427,190.63464 407.33919,196.63805 412.46875,202.75 C 423.22448,189.62476 432.75501,178.35192 439.53125,171.125 C 444.24559,166.09712 448.56154,161.77054 452.46875,158.09375 C 446.53509,146.05288 440.17638,134.97553 433.34375,125 z M 460.3125,175.15625 C 456.2838,181.72471 452.49298,187.89346 446.40625,197.875 C 442.29293,204.62037 436.26754,214.38462 429.65625,225.0625 C 435.90094,234.30186 441.63914,243.85545 447,253.625 C 456.81218,240.33094 466.30125,227.45456 475.46875,214.96875 C 470.7705,201.01882 465.73094,187.68856 460.3125,175.15625 z" id="path4752" style="fill: url(#radialGradient4832) rgb(0, 0, 0);"/>
  <path d="M 358.33965,37.660347 C 311.53448,49.208781 15.125,255.25 15.125,255.25 C 15.125,255.25 68.09375,230.8125 68.09375,230.8125 C 145.10094,177.46953 222.52779,124.31059 302.9375,76.0625 C 323.76957,64.538733 343.71205,50.42956 366.9375,44.5625 C 381.0195,38.319639 394.15978,29.40753 409,24.75 C 409,24.75 416.30154,18.048139 422.03125,12.78125 C 423.10734,11.38314 424.21048,9.9292952 425.375,8.34375 C 402.91526,16.118308 363.04432,36.499545 358.33965,37.660347 z M 198.875,205.84375 C 202.85869,217.82767 145.70024,282.88884 63.78125,418.4375 C 63.168831,419.52003 62.754337,420.29622 62.3125,421.125 C 69.539823,412.01596 116.9375,352.28125 116.9375,352.28125 C 141.1394,314.65284 166.58204,277.94018 191.9375,241.09375 C 197.24394,232.01172 205.09667,222.92257 204.75,211.90625 C 205.32691,207.83875 201.19688,207.7445 198.875,205.84375 z M 248.0625,232.9375 C 244.65487,233.79159 241.46845,235.4553 238.21875,236.8125 C 182.94375,328.31767 125.22216,416.39452 75.03125,509.90625 C 80.978009,502.03556 114,458.34375 114,458.34375 C 153.85446,390.27521 196.69611,323.81805 237.8125,256.375 C 241.5724,248.59417 247.89529,242.07446 250.4375,233.78125 C 249.85156,233.06104 249.0066,232.85612 248.0625,232.9375 z" id="path3279" style="fill: rgb(255, 255, 255); filter: url(#filter4638);"/>
  <path d="M 172.8125,159.1875 C 137.66622,182.74314 102.83389,206.74797 68.09375,230.8125 C 68.09375,230.8125 46.442429,241.00574 28.341381,249.50102 L 21.560131,254.28227 C 50.682021,242.39728 119.2777,212.5444 179.34375,198.21875 C 197.45099,193.91002 209.52863,197.26986 177.9375,241.40625 C 172.04009,249.64561 164.92004,259.87207 157.25,271.09375 C 162.3661,276.02499 167.47781,281.5874 172.6875,287.46875 C 172.90336,287.71244 173.1279,287.97146 173.34375,288.21875 C 185.30533,273.55382 195.83339,260.97031 203.21875,253.09375 C 211.11848,244.66863 217.89156,238.22232 223.5625,233.5 C 209.42176,202.30493 192.76901,176.52405 172.8125,159.1875 z M 229.75,247.8125 C 224.89148,255.73817 218.70892,265.76711 210.125,279.84375 C 205.39721,287.59678 198.3783,298.94454 190.5625,311.5625 C 196.16282,320.26869 201.74029,329.95992 207.21875,340.34375 C 220.32577,322.6039 232.8083,305.65448 244.75,289.375 C 240.1062,274.85103 235.12437,260.94145 229.75,247.8125 z" id="path3522" style="fill-opacity: 0.2;"/>
  <path d="M 56.749912,231.34053 C 58.955402,230.43801 60.141562,232.39418 62.437412,231.46553 C 96.389922,217.73204 139.2075,204.92596 178.59366,195.59053 C 183.59634,194.40478 188.32602,193.66052 193.18741,194.62178 C 195.6181,195.10241 198.21034,196.13349 200.34366,198.15303 C 202.47698,200.17257 204.32502,197.08013 204.71866,199.93428 C 205.50594,205.64258 203.65968,211.20264 200.12491,218.40303 C 196.59014,225.60342 191.03847,234.40704 182.87491,245.55928 C 164.39265,270.80789 134.76971,315.02381 109.56241,354.02803 C 107.04702,357.92019 105.47565,360.57424 103.06241,364.34053 C 106.51825,360.02118 109.26355,361.99374 112.84366,357.49678 C 144.03771,318.31414 178.50072,274.38265 196.53116,255.15303 C 206.20432,244.83652 214.53263,236.80252 221.49991,231.15303 C 228.46719,225.50354 233.21191,221.5231 240.46866,221.49678 C 240.64044,221.49616 241.04909,221.36183 242.62491,221.52803 C 243.41282,221.61113 246.23007,218.92054 246.24991,220.80928 C 246.31872,227.36122 249.63618,220.08369 249.93741,221.74678 C 250.53987,225.07296 249.62982,226.17082 249.06241,227.49678 C 248.495,228.82274 247.75793,230.17121 246.74991,231.96553 C 242.71781,239.14283 233.91208,253.22419 215.71866,283.05928 C 200.49663,308.02164 165.64685,363.70749 134.56241,414.87178 C 124.53409,431.37817 115.34105,446.70967 106.90616,461.05928 C 205.37881,335.60906 257.56152,269.43924 279.09869,235.01148 C 291.14602,215.75349 305.71891,191.06423 321.07908,168.98759 C 334.28334,150.00959 354.9708,146.6778 365.84501,149.81481 C 387.59344,156.08884 403.90347,176.9591 417.87626,194.09606 C 452.44718,236.49563 485.96138,321.83174 523.87491,439.30928 C 513.31506,372.94667 500.45928,295.95543 480.71866,228.65303 C 460.29858,159.03414 425.68529,120.8467 387.80601,95.666823 C 387.80601,95.666823 398.15616,69.43428 398.15616,69.43428 C 479.40308,123.44238 510.40823,309.49852 531.93741,445.24678 C 540.97154,502.20995 543.98457,515.33583 542.81241,522.02803 C 493.72667,365.06652 452.04063,257.89161 411.19012,209.46282 C 385.21317,178.66681 350.17547,137.69842 301.53116,210.65303 C 276.5678,248.09199 118.68345,460.60587 89.906162,494.59053 C 81.546979,504.46233 76.511782,511.92641 70.093662,515.90303 C 77.136609,505.91077 179.08429,336.14722 209.39827,286.43581 C 245.81105,226.72308 245.32612,222.48098 240.96866,222.49678 C 234.7999,222.51916 221.20305,233.58728 202.12491,253.93428 C 167.28703,291.08918 69.051953,423.72973 61.938633,421.59689 C 66.871306,412.25504 139.1653,299.84264 176.51538,246.00558 C 207.45435,201.40962 198.8297,192.1103 180.71866,196.40303 C 103.26784,214.76066 8.2340345,261.1017 5.249912,259.49678 M 236.18741,221.77803 C 236.21982,221.80113 236.23502,221.88554 236.18741,221.99678 C 236.1738,222.02858 236.07964,222.17715 236.06241,222.21553 C 236.07141,222.16854 236.05183,221.96902 236.06241,221.93428 C 236.10537,221.79314 236.155,221.75493 236.18741,221.77803 z" id="path3461" style="fill: url(#radialGradient4841) rgb(0, 0, 0); filter: url(#filter4517);"/>
  <path d="M 248.24312,283.84454 C 283.05445,238.45198 247.51232,280.61945 312.07555,193.93211 C 324.7798,178.15733 340.12168,159.72643 361.5625,163.375 C 386.7512,168.31395 403.70187,189.56306 419.68689,207.93674 C 454.21096,251.97738 473.9804,305.31104 494.89629,356.87019 C 503.85323,380.32991 512.27692,403.94496 520.21875,427.75 C 505.06953,335.23368 488.99955,246.44647 451.31846,160.00137 C 437.42595,132.84648 418.85085,113.40757 389.49999,91.190236 C 389.49999,91.190236 289.00029,189.46481 248.24312,283.84454 z" id="path4714" style="fill: url(#linearGradient4783) rgb(0, 0, 0); filter: url(#filter4773);"/>
  <path d="M 426.625,7.375 C 425.99774,7.3707455 425.15745,7.4471891 424.1875,7.65625 C 422.2476,8.0743717 419.6962,8.9181064 416.625,10.0625 C 410.4826,12.351287 402.27603,15.862874 392.4375,19.75 C 383.43567,23.306555 376.39789,27.24609 371,30.34375 C 365.60211,33.44141 361.95086,35.750026 359.15625,36.03125 C 354.26332,36.523637 344.87011,40.344268 332.46875,46.6875 C 320.06739,53.030732 304.57922,61.894258 287.15625,72.40625 C 252.3103,93.430234 209.69907,121.10052 168.34375,148.71875 C 126.98843,176.33698 86.891324,203.88782 57.0625,224.6875 C 42.148088,235.08734 29.77601,243.82001 21.125,250 C 16.799495,253.08999 13.39658,255.53151 11.0625,257.25 C 10.663247,257.54395 10.492228,257.6874 10.15625,257.9375 C 10.70896,257.74802 11.091729,257.631 11.78125,257.375 C 14.72154,256.28337 18.864597,254.6151 24,252.5 C 24.080266,252.46694 24.2005,252.40827 24.28125,252.375 C 84.731095,209.18646 325.69769,42.425006 361.90625,38.78125 C 366.72165,38.296671 376.89472,29.71576 395,22.5625 C 407.87009,17.477636 417.88708,13.070349 424.25,11.15625 C 425.13913,9.972026 426.05077,8.7524851 427,7.4375 C 426.84898,7.4221366 426.80761,7.3762386 426.625,7.375 z M 198.09375,201.96875 C 198.63357,205.14953 197.62948,209.54417 194.71875,215.75 C 191.65923,222.27306 186.47607,230.7876 178.5625,241.84375 C 160.2539,267.42295 130.90691,311.15911 105.84375,349.75 C 93.312169,369.04544 81.856367,387.06799 73.375,400.875 C 69.134316,407.77851 65.632322,413.63049 63.125,418.0625 C 61.871339,420.27851 60.851569,422.14149 60.125,423.59375 C 59.775884,424.29156 59.714683,424.53071 59.5,425.03125 C 59.696384,424.89623 59.831634,424.8371 60.0625,424.65625 C 61.169503,423.78908 62.664815,422.40594 64.4375,420.59375 C 65.419814,419.58954 66.499065,418.41603 67.65625,417.15625 C 87.97497,382.36583 149.92165,288.02063 180.78125,244.90625 C 200.40075,217.49558 203.14506,205.85461 198.09375,201.96875 z M 245.28125,227.125 C 244.90373,227.10524 244.41968,227.15428 243.875,227.15625 C 243.57259,227.15734 243.21766,227.20227 242.875,227.25 C 242.5243,227.94652 242.09189,228.72496 241.53125,229.71875 C 237.78836,236.35343 228.9861,250.39616 210.78125,280.25 C 195.61717,305.11734 160.96055,360.43791 130.09375,411.21875 C 114.66035,436.60917 100.18529,460.84856 89.5625,479.59375 C 84.251105,488.96634 79.886128,496.97284 76.875,503.03125 C 75.369436,506.06045 74.194956,508.61483 73.40625,510.59375 C 73.002613,511.6065 73.006783,511.96019 72.8125,512.65625 C 74.676883,511.286 76.468805,509.63643 78.3125,507.71875 C 98.00538,467.11747 186.09919,327.43796 212.96875,283.375 C 244.82994,231.12636 247.92387,227.26335 245.28125,227.125 z" id="path3523" style="fill: rgb(194, 194, 194);"/>
</svg>