<?xml version="1.0" encoding="UTF-8" standalone="no"?>
<!-- Created with Inkscape (http://www.inkscape.org/) -->

<svg
   xmlns:dc="http://purl.org/dc/elements/1.1/"
   xmlns:cc="http://creativecommons.org/ns#"
   xmlns:rdf="http://www.w3.org/1999/02/22-rdf-syntax-ns#"
   xmlns:svg="http://www.w3.org/2000/svg"
   xmlns="http://www.w3.org/2000/svg"
   xmlns:xlink="http://www.w3.org/1999/xlink"
   xmlns:sodipodi="http://sodipodi.sourceforge.net/DTD/sodipodi-0.dtd"
   xmlns:inkscape="http://www.inkscape.org/namespaces/inkscape"
   width="400"
   height="190"
   id="svg8635"
   version="1.1"
   inkscape:version="0.47pre4 r22446"
   sodipodi:docname="lxde.svg"
   inkscape:export-filename="/home/hp/Downloads/lxde/lxde.png"
   inkscape:export-xdpi="71.999992"
   inkscape:export-ydpi="71.999992">
  <defs
     id="defs8637">
    <inkscape:perspective
       sodipodi:type="inkscape:persp3d"
       inkscape:vp_x="0 : 526.18109 : 1"
       inkscape:vp_y="0 : 1000 : 0"
       inkscape:vp_z="744.09448 : 526.18109 : 1"
       inkscape:persp3d-origin="372.04724 : 350.78739 : 1"
       id="perspective8643" />
    <inkscape:perspective
       id="perspective7430"
       inkscape:persp3d-origin="0.5 : 0.33333333 : 1"
       inkscape:vp_z="1 : 0.5 : 1"
       inkscape:vp_y="0 : 1000 : 0"
       inkscape:vp_x="0 : 0.5 : 1"
       sodipodi:type="inkscape:persp3d" />
    <linearGradient
       inkscape:collect="always"
       xlink:href="#linearGradient8329"
       id="linearGradient21561"
       gradientUnits="userSpaceOnUse"
       gradientTransform="matrix(0.66049134,0,0,0.53766234,480.56258,579.24481)"
       x1="295.68256"
       y1="652.06189"
       x2="438.96979"
       y2="572.08765" />
    <linearGradient
       inkscape:collect="always"
       id="linearGradient8329">
      <stop
         style="stop-color:#0059ff;stop-opacity:1;"
         offset="0"
         id="stop8331" />
      <stop
         style="stop-color:#000080;stop-opacity:1"
         offset="1"
         id="stop8333" />
    </linearGradient>
    <clipPath
       clipPathUnits="userSpaceOnUse"
       id="clipPath1101-5">
      <path
         d="m 0,595.276 841.89,0 L 841.89,0 0,0 0,595.276 z"
         id="path1103-8" />
    </clipPath>
    <linearGradient
       inkscape:collect="always"
       xlink:href="#SVGID_3_"
       id="linearGradient21563"
       gradientUnits="userSpaceOnUse"
       gradientTransform="matrix(1,0,0,-1,8.3999,368.2998)"
       x1="129.342"
       y1="259.30521"
       x2="195.5984"
       y2="259.30521" />
    <linearGradient
       id="SVGID_3_"
       gradientUnits="userSpaceOnUse"
       x1="129.342"
       y1="259.30521"
       x2="195.5984"
       y2="259.30521"
       gradientTransform="matrix(1,0,0,-1,8.3999,368.2998)">
      <stop
         offset="0"
         stop-color="#FAC700"
         id="stop11792" />
      <stop
         offset="0.415"
         stop-color="#F7C400"
         id="stop11794" />
      <stop
         offset="1"
         stop-color="#F7C400"
         id="stop11796" />
    </linearGradient>
    <linearGradient
       inkscape:collect="always"
       xlink:href="#SVGID_4_"
       id="linearGradient21565"
       gradientUnits="userSpaceOnUse"
       gradientTransform="matrix(1,0,0,-1,8.3999,368.2998)"
       x1="129.2932"
       y1="259.311"
       x2="195.5535"
       y2="259.311" />
    <linearGradient
       id="SVGID_4_"
       gradientUnits="userSpaceOnUse"
       x1="129.2932"
       y1="259.311"
       x2="195.5535"
       y2="259.311"
       gradientTransform="matrix(1,0,0,-1,8.3999,368.2998)">
      <stop
         offset="0"
         stop-color="#F6C200"
         id="stop11801" />
      <stop
         offset="0.415"
         stop-color="#EFBC00"
         id="stop11803" />
      <stop
         offset="1"
         stop-color="#EFBC00"
         id="stop11805" />
    </linearGradient>
    <linearGradient
       inkscape:collect="always"
       xlink:href="#SVGID_5_"
       id="linearGradient21567"
       gradientUnits="userSpaceOnUse"
       gradientTransform="matrix(1,0,0,-1,8.3999,368.2998)"
       x1="129.24541"
       y1="259.31689"
       x2="195.50951"
       y2="259.31689" />
    <linearGradient
       id="SVGID_5_"
       gradientUnits="userSpaceOnUse"
       x1="129.24541"
       y1="259.31689"
       x2="195.50951"
       y2="259.31689"
       gradientTransform="matrix(1,0,0,-1,8.3999,368.2998)">
      <stop
         offset="0"
         stop-color="#F1BD00"
         id="stop11810" />
      <stop
         offset="0.415"
         stop-color="#E8B500"
         id="stop11812" />
      <stop
         offset="1"
         stop-color="#E8B500"
         id="stop11814" />
    </linearGradient>
    <linearGradient
       inkscape:collect="always"
       xlink:href="#SVGID_6_"
       id="linearGradient21569"
       gradientUnits="userSpaceOnUse"
       gradientTransform="matrix(1,0,0,-1,8.3999,368.2998)"
       x1="129.1965"
       y1="259.32181"
       x2="195.4646"
       y2="259.32181" />
    <linearGradient
       id="SVGID_6_"
       gradientUnits="userSpaceOnUse"
       x1="129.1965"
       y1="259.32181"
       x2="195.4646"
       y2="259.32181"
       gradientTransform="matrix(1,0,0,-1,8.3999,368.2998)">
      <stop
         offset="0"
         stop-color="#EDB800"
         id="stop11819" />
      <stop
         offset="0.415"
         stop-color="#E0AD00"
         id="stop11821" />
      <stop
         offset="1"
         stop-color="#E0AD00"
         id="stop11823" />
    </linearGradient>
    <linearGradient
       inkscape:collect="always"
       xlink:href="#SVGID_7_"
       id="linearGradient21571"
       gradientUnits="userSpaceOnUse"
       gradientTransform="matrix(1,0,0,-1,8.3999,368.2998)"
       x1="129.14771"
       y1="259.32669"
       x2="195.4216"
       y2="259.32669" />
    <linearGradient
       id="SVGID_7_"
       gradientUnits="userSpaceOnUse"
       x1="129.14771"
       y1="259.32669"
       x2="195.4216"
       y2="259.32669"
       gradientTransform="matrix(1,0,0,-1,8.3999,368.2998)">
      <stop
         offset="0"
         stop-color="#E9B300"
         id="stop11828" />
      <stop
         offset="0.415"
         stop-color="#D8A500"
         id="stop11830" />
      <stop
         offset="1"
         stop-color="#D8A500"
         id="stop11832" />
    </linearGradient>
    <linearGradient
       inkscape:collect="always"
       xlink:href="#SVGID_8_"
       id="linearGradient21573"
       gradientUnits="userSpaceOnUse"
       gradientTransform="matrix(1,0,0,-1,8.3999,368.2998)"
       x1="129.09891"
       y1="259.33151"
       x2="195.37869"
       y2="259.33151" />
    <linearGradient
       id="SVGID_8_"
       gradientUnits="userSpaceOnUse"
       x1="129.09891"
       y1="259.33151"
       x2="195.37869"
       y2="259.33151"
       gradientTransform="matrix(1,0,0,-1,8.3999,368.2998)">
      <stop
         offset="0"
         stop-color="#E4AE00"
         id="stop11837" />
      <stop
         offset="0.415"
         stop-color="#D19E00"
         id="stop11839" />
      <stop
         offset="1"
         stop-color="#D19E00"
         id="stop11841" />
    </linearGradient>
    <linearGradient
       inkscape:collect="always"
       xlink:href="#SVGID_9_"
       id="linearGradient21575"
       gradientUnits="userSpaceOnUse"
       gradientTransform="matrix(1,0,0,-1,8.3999,368.2998)"
       x1="129.05099"
       y1="259.3364"
       x2="195.3376"
       y2="259.3364" />
    <linearGradient
       id="SVGID_9_"
       gradientUnits="userSpaceOnUse"
       x1="129.05099"
       y1="259.3364"
       x2="195.3376"
       y2="259.3364"
       gradientTransform="matrix(1,0,0,-1,8.3999,368.2998)">
      <stop
         offset="0"
         stop-color="#E0A900"
         id="stop11846" />
      <stop
         offset="0.415"
         stop-color="#C99600"
         id="stop11848" />
      <stop
         offset="1"
         stop-color="#C99600"
         id="stop11850" />
    </linearGradient>
    <linearGradient
       inkscape:collect="always"
       xlink:href="#SVGID_10_"
       id="linearGradient21577"
       gradientUnits="userSpaceOnUse"
       gradientTransform="matrix(1,0,0,-1,8.3999,368.2998)"
       x1="129.0032"
       y1="259.3403"
       x2="195.2957"
       y2="259.3403" />
    <linearGradient
       id="SVGID_10_"
       gradientUnits="userSpaceOnUse"
       x1="129.0032"
       y1="259.3403"
       x2="195.2957"
       y2="259.3403"
       gradientTransform="matrix(1,0,0,-1,8.3999,368.2998)">
      <stop
         offset="0"
         stop-color="#DCA400"
         id="stop11855" />
      <stop
         offset="0.415"
         stop-color="#C18E00"
         id="stop11857" />
      <stop
         offset="1"
         stop-color="#C18E00"
         id="stop11859" />
    </linearGradient>
    <linearGradient
       inkscape:collect="always"
       xlink:href="#SVGID_11_"
       id="linearGradient21579"
       gradientUnits="userSpaceOnUse"
       gradientTransform="matrix(1,0,0,-1,8.3999,368.2998)"
       x1="128.9543"
       y1="259.34329"
       x2="195.25459"
       y2="259.34329" />
    <linearGradient
       id="SVGID_11_"
       gradientUnits="userSpaceOnUse"
       x1="128.9543"
       y1="259.34329"
       x2="195.25459"
       y2="259.34329"
       gradientTransform="matrix(1,0,0,-1,8.3999,368.2998)">
      <stop
         offset="0"
         stop-color="#D79F00"
         id="stop11864" />
      <stop
         offset="0.415"
         stop-color="#BA8700"
         id="stop11866" />
      <stop
         offset="1"
         stop-color="#BA8700"
         id="stop11868" />
    </linearGradient>
    <linearGradient
       inkscape:collect="always"
       xlink:href="#SVGID_12_"
       id="linearGradient21581"
       gradientUnits="userSpaceOnUse"
       gradientTransform="matrix(1,0,0,-1,8.3999,368.2998)"
       x1="128.90649"
       y1="259.34811"
       x2="195.21561"
       y2="259.34811" />
    <linearGradient
       id="SVGID_12_"
       gradientUnits="userSpaceOnUse"
       x1="128.90649"
       y1="259.34811"
       x2="195.21561"
       y2="259.34811"
       gradientTransform="matrix(1,0,0,-1,8.3999,368.2998)">
      <stop
         offset="0"
         stop-color="#D39B00"
         id="stop11873" />
      <stop
         offset="0.415"
         stop-color="#B27F00"
         id="stop11875" />
      <stop
         offset="1"
         stop-color="#B27F00"
         id="stop11877" />
    </linearGradient>
    <linearGradient
       inkscape:collect="always"
       xlink:href="#SVGID_13_"
       id="linearGradient21583"
       gradientUnits="userSpaceOnUse"
       gradientTransform="matrix(1,0,0,-1,8.3999,368.2998)"
       x1="128.8567"
       y1="259.3501"
       x2="195.17551"
       y2="259.3501" />
    <linearGradient
       id="SVGID_13_"
       gradientUnits="userSpaceOnUse"
       x1="128.8567"
       y1="259.3501"
       x2="195.17551"
       y2="259.3501"
       gradientTransform="matrix(1,0,0,-1,8.3999,368.2998)">
      <stop
         offset="0"
         stop-color="#CF9600"
         id="stop11882" />
      <stop
         offset="0.415"
         stop-color="#AA7700"
         id="stop11884" />
      <stop
         offset="1"
         stop-color="#AA7700"
         id="stop11886" />
    </linearGradient>
    <linearGradient
       inkscape:collect="always"
       xlink:href="#SVGID_14_"
       id="linearGradient21585"
       gradientUnits="userSpaceOnUse"
       gradientTransform="matrix(1,0,0,-1,8.3999,368.2998)"
       x1="128.80881"
       y1="259.354"
       x2="195.13651"
       y2="259.354" />
    <linearGradient
       id="SVGID_14_"
       gradientUnits="userSpaceOnUse"
       x1="128.80881"
       y1="259.354"
       x2="195.13651"
       y2="259.354"
       gradientTransform="matrix(1,0,0,-1,8.3999,368.2998)">
      <stop
         offset="0"
         stop-color="#CA9100"
         id="stop11891" />
      <stop
         offset="0.415"
         stop-color="#A37000"
         id="stop11893" />
      <stop
         offset="1"
         stop-color="#A37000"
         id="stop11895" />
    </linearGradient>
    <linearGradient
       inkscape:collect="always"
       xlink:href="#SVGID_15_"
       id="linearGradient21587"
       gradientUnits="userSpaceOnUse"
       gradientTransform="matrix(1,0,0,-1,8.3999,368.2998)"
       x1="128.75999"
       y1="259.35599"
       x2="195.0994"
       y2="259.35599" />
    <linearGradient
       id="SVGID_15_"
       gradientUnits="userSpaceOnUse"
       x1="128.75999"
       y1="259.35599"
       x2="195.0994"
       y2="259.35599"
       gradientTransform="matrix(1,0,0,-1,8.3999,368.2998)">
      <stop
         offset="0"
         stop-color="#C68C00"
         id="stop11900" />
      <stop
         offset="0.415"
         stop-color="#9B6800"
         id="stop11902" />
      <stop
         offset="1"
         stop-color="#9B6800"
         id="stop11904" />
    </linearGradient>
    <linearGradient
       inkscape:collect="always"
       xlink:href="#SVGID_16_"
       id="linearGradient21589"
       gradientUnits="userSpaceOnUse"
       gradientTransform="matrix(1,0,0,-1,8.3999,368.2998)"
       x1="128.7122"
       y1="259.35791"
       x2="195.0623"
       y2="259.35791" />
    <linearGradient
       id="SVGID_16_"
       gradientUnits="userSpaceOnUse"
       x1="128.7122"
       y1="259.35791"
       x2="195.0623"
       y2="259.35791"
       gradientTransform="matrix(1,0,0,-1,8.3999,368.2998)">
      <stop
         offset="0"
         stop-color="#C28700"
         id="stop11909" />
      <stop
         offset="0.415"
         stop-color="#936000"
         id="stop11911" />
      <stop
         offset="1"
         stop-color="#936000"
         id="stop11913" />
    </linearGradient>
    <linearGradient
       inkscape:collect="always"
       xlink:href="#SVGID_17_"
       id="linearGradient21591"
       gradientUnits="userSpaceOnUse"
       gradientTransform="matrix(1,0,0,-1,8.3999,368.2998)"
       x1="128.6633"
       y1="259.35989"
       x2="195.0251"
       y2="259.35989" />
    <linearGradient
       id="SVGID_17_"
       gradientUnits="userSpaceOnUse"
       x1="128.6633"
       y1="259.35989"
       x2="195.0251"
       y2="259.35989"
       gradientTransform="matrix(1,0,0,-1,8.3999,368.2998)">
      <stop
         offset="0"
         stop-color="#BD8200"
         id="stop11918" />
      <stop
         offset="0.415"
         stop-color="#8C5900"
         id="stop11920" />
      <stop
         offset="1"
         stop-color="#8C5900"
         id="stop11922" />
    </linearGradient>
    <linearGradient
       inkscape:collect="always"
       xlink:href="#SVGID_18_"
       id="linearGradient21593"
       gradientUnits="userSpaceOnUse"
       gradientTransform="matrix(1,0,0,-1,8.3999,368.2998)"
       x1="128.61549"
       y1="259.36179"
       x2="194.989"
       y2="259.36179" />
    <linearGradient
       id="SVGID_18_"
       gradientUnits="userSpaceOnUse"
       x1="128.61549"
       y1="259.36179"
       x2="194.989"
       y2="259.36179"
       gradientTransform="matrix(1,0,0,-1,8.3999,368.2998)">
      <stop
         offset="0"
         stop-color="#B97D00"
         id="stop11927" />
      <stop
         offset="0.415"
         stop-color="#845100"
         id="stop11929" />
      <stop
         offset="1"
         stop-color="#845100"
         id="stop11931" />
    </linearGradient>
    <linearGradient
       inkscape:collect="always"
       xlink:href="#SVGID_19_"
       id="linearGradient21595"
       gradientUnits="userSpaceOnUse"
       gradientTransform="matrix(1,0,0,-1,8.3999,368.2998)"
       x1="128.5667"
       y1="259.3638"
       x2="194.9539"
       y2="259.3638" />
    <linearGradient
       id="SVGID_19_"
       gradientUnits="userSpaceOnUse"
       x1="128.5667"
       y1="259.3638"
       x2="194.9539"
       y2="259.3638"
       gradientTransform="matrix(1,0,0,-1,8.3999,368.2998)">
      <stop
         offset="0"
         stop-color="#B57800"
         id="stop11936" />
      <stop
         offset="0.415"
         stop-color="#7C4900"
         id="stop11938" />
      <stop
         offset="1"
         stop-color="#7C4900"
         id="stop11940" />
    </linearGradient>
    <linearGradient
       inkscape:collect="always"
       xlink:href="#SVGID_20_"
       id="linearGradient21597"
       gradientUnits="userSpaceOnUse"
       gradientTransform="matrix(1,0,0,-1,8.3999,368.2998)"
       x1="128.51781"
       y1="259.36569"
       x2="194.91769"
       y2="259.36569" />
    <linearGradient
       id="SVGID_20_"
       gradientUnits="userSpaceOnUse"
       x1="128.51781"
       y1="259.36569"
       x2="194.91769"
       y2="259.36569"
       gradientTransform="matrix(1,0,0,-1,8.3999,368.2998)">
      <stop
         offset="0"
         stop-color="#B07300"
         id="stop11945" />
      <stop
         offset="0.415"
         stop-color="#754200"
         id="stop11947" />
      <stop
         offset="1"
         stop-color="#754200"
         id="stop11949" />
    </linearGradient>
    <linearGradient
       inkscape:collect="always"
       xlink:href="#SVGID_21_"
       id="linearGradient21599"
       gradientUnits="userSpaceOnUse"
       gradientTransform="matrix(1,0,0,-1,8.3999,368.2998)"
       x1="128.47"
       y1="259.3667"
       x2="194.8855"
       y2="259.3667" />
    <linearGradient
       id="SVGID_21_"
       gradientUnits="userSpaceOnUse"
       x1="128.47"
       y1="259.3667"
       x2="194.8855"
       y2="259.3667"
       gradientTransform="matrix(1,0,0,-1,8.3999,368.2998)">
      <stop
         offset="0"
         stop-color="#AC6E00"
         id="stop11954" />
      <stop
         offset="0.415"
         stop-color="#6D3A00"
         id="stop11956" />
      <stop
         offset="1"
         stop-color="#6D3A00"
         id="stop11958" />
    </linearGradient>
    <linearGradient
       inkscape:collect="always"
       xlink:href="#SVGID_22_"
       id="linearGradient21601"
       gradientUnits="userSpaceOnUse"
       gradientTransform="matrix(1,0,0,-1,8.3999,368.2998)"
       x1="128.4211"
       y1="259.36871"
       x2="194.8503"
       y2="259.36871" />
    <linearGradient
       id="SVGID_22_"
       gradientUnits="userSpaceOnUse"
       x1="128.4211"
       y1="259.36871"
       x2="194.8503"
       y2="259.36871"
       gradientTransform="matrix(1,0,0,-1,8.3999,368.2998)">
      <stop
         offset="0"
         stop-color="#A86A00"
         id="stop11963" />
      <stop
         offset="0.415"
         stop-color="#663200"
         id="stop11965" />
      <stop
         offset="1"
         stop-color="#663200"
         id="stop11967" />
    </linearGradient>
    <radialGradient
       inkscape:collect="always"
       xlink:href="#linearGradient22714-6"
       id="radialGradient21603"
       gradientUnits="userSpaceOnUse"
       gradientTransform="matrix(-0.05135655,1.7043346,-1.7358385,-0.05230537,306.22391,1312.7084)"
       cx="24.557663"
       cy="56.273899"
       fx="24.557663"
       fy="56.273899"
       r="58.789555" />
    <linearGradient
       id="linearGradient22714-6">
      <stop
         id="stop3358"
         offset="0"
         style="stop-color:#ffffff;stop-opacity:1;" />
      <stop
         style="stop-color:#ffffff;stop-opacity:1;"
         offset="0.23517746"
         id="stop3422" />
      <stop
         style="stop-color:#eaeaea;stop-opacity:1;"
         offset="0.33212763"
         id="stop2552" />
      <stop
         style="stop-color:#c9c9c9;stop-opacity:1;"
         offset="0.67733651"
         id="stop2548" />
      <stop
         style="stop-color:#c9c9c9;stop-opacity:1;"
         offset="0.70174891"
         id="stop3360" />
      <stop
         id="stop2550"
         offset="0.88718456"
         style="stop-color:#919191;stop-opacity:1;" />
      <stop
         style="stop-color:#636363;stop-opacity:1;"
         offset="1"
         id="stop5321-6" />
    </linearGradient>
    <radialGradient
       inkscape:collect="always"
       xlink:href="#linearGradient3414"
       id="radialGradient21605"
       gradientUnits="userSpaceOnUse"
       gradientTransform="matrix(-0.01133842,1.1681586,-1.0210899,-0.00991093,301.44891,1269.285)"
       cx="74.607216"
       cy="103.19434"
       fx="74.607216"
       fy="103.19434"
       r="71.078377" />
    <linearGradient
       id="linearGradient3414">
      <stop
         id="stop3416"
         offset="0"
         style="stop-color:#c8c8c8;stop-opacity:1;" />
      <stop
         id="stop3418"
         offset="1"
         style="stop-color:#5a5a5a;stop-opacity:1;" />
    </linearGradient>
    <linearGradient
       inkscape:collect="always"
       xlink:href="#linearGradient8329"
       id="linearGradient11895"
       gradientUnits="userSpaceOnUse"
       gradientTransform="matrix(0.66049134,0,0,0.53766234,480.56258,579.24481)"
       x1="295.68256"
       y1="652.06189"
       x2="438.96979"
       y2="572.08765" />
    <linearGradient
       inkscape:collect="always"
       xlink:href="#linearGradient8329"
       id="linearGradient11916"
       gradientUnits="userSpaceOnUse"
       gradientTransform="matrix(0.66049134,0,0,0.53766234,480.56258,579.24481)"
       x1="295.68256"
       y1="652.06189"
       x2="438.96979"
       y2="572.08765" />
    <linearGradient
       inkscape:collect="always"
       xlink:href="#linearGradient8329"
       id="linearGradient11935"
       gradientUnits="userSpaceOnUse"
       gradientTransform="matrix(0.66049134,0,0,0.53766234,480.56258,579.24481)"
       x1="295.68256"
       y1="652.06189"
       x2="438.96979"
       y2="572.08765" />
    <linearGradient
       inkscape:collect="always"
       xlink:href="#linearGradient8329"
       id="linearGradient11953"
       gradientUnits="userSpaceOnUse"
       gradientTransform="matrix(2.7281507,0,0,2.4436434,-240.06513,-1441.472)"
       x1="295.68256"
       y1="652.06189"
       x2="438.96979"
       y2="572.08765" />
    <filter
       id="filter4871">
      <feGaussianBlur
         inkscape:collect="always"
         stdDeviation="8.1240593"
         id="feGaussianBlur4873" />
    </filter>
    <radialGradient
       gradientTransform="matrix(0.238287,-0.271638,0.0847898,0.0743795,222.351,262.493)"
       gradientUnits="userSpaceOnUse"
       xlink:href="#linearGradient4835"
       id="radialGradient4841"
       fy="137.56808"
       fx="235.58434"
       r="268.90195"
       cy="137.56808"
       cx="235.58434" />
    <radialGradient
       gradientTransform="matrix(-0.277285,0.236234,-0.420973,-0.494127,560.776,53.5788)"
       gradientUnits="userSpaceOnUse"
       xlink:href="#linearGradient4793"
       id="radialGradient4832"
       fy="105.77066"
       fx="390.52817"
       r="118.78125"
       cy="105.77066"
       cx="390.52817" />
    <linearGradient
       gradientUnits="userSpaceOnUse"
       xlink:href="#linearGradient4777"
       id="linearGradient4783"
       y2="158.35384"
       x2="324.35019"
       y1="175.32442"
       x1="352.8949" />
    <filter
       id="filter4773">
      <feGaussianBlur
         inkscape:collect="always"
         stdDeviation="1.5496228"
         id="feGaussianBlur4775" />
    </filter>
    <radialGradient
       gradientTransform="matrix(1.19762,0,0,1.2338,-49.386,-65.7069)"
       gradientUnits="userSpaceOnUse"
       xlink:href="#linearGradient3486"
       id="radialGradient4712"
       fy="276.31491"
       fx="244.97728"
       r="217.6875"
       cy="276.31491"
       cx="244.97728" />
    <filter
       id="filter4638">
      <feGaussianBlur
         inkscape:collect="always"
         stdDeviation="1.1397656"
         id="feGaussianBlur4640" />
    </filter>
    <filter
       id="filter4517">
      <feGaussianBlur
         id="feGaussianBlur4519"
         stdDeviation="1.3154426"
         inkscape:collect="always" />
    </filter>
    <linearGradient
       id="linearGradient3486">
      <stop
         offset="0"
         style="stop-color: rgb(0, 0, 0); stop-opacity: 0.502;"
         id="stop3488" />
      <stop
         offset="1"
         style="stop-color: rgb(255, 255, 255); stop-opacity: 1;"
         id="stop3490" />
    </linearGradient>
    <filter
       id="filter3326">
      <feGaussianBlur
         id="feGaussianBlur3328"
         stdDeviation="2.6472166"
         inkscape:collect="always" />
    </filter>
    <linearGradient
       id="linearGradient4777">
      <stop
         offset="0"
         style="stop-color: rgb(0, 0, 0); stop-opacity: 0.1451;"
         id="stop4779" />
      <stop
         offset="1"
         style="stop-color: rgb(0, 0, 0); stop-opacity: 0;"
         id="stop4781" />
    </linearGradient>
    <linearGradient
       id="linearGradient4793">
      <stop
         offset="0"
         style="stop-color: rgb(0, 0, 0); stop-opacity: 0;"
         id="stop4795" />
      <stop
         offset="1"
         style="stop-color: rgb(0, 0, 0); stop-opacity: 0.2;"
         id="stop4797" />
    </linearGradient>
    <linearGradient
       id="linearGradient4835">
      <stop
         offset="0"
         style="stop-color: rgb(255, 255, 255); stop-opacity: 0;"
         id="stop4837" />
      <stop
         offset="1"
         style="stop-color: rgb(255, 255, 255); stop-opacity: 0.635294;"
         id="stop4839" />
    </linearGradient>
    <inkscape:perspective
       id="perspective3244"
       inkscape:persp3d-origin="275.5 : 178.33333 : 1"
       inkscape:vp_z="551 : 267.5 : 1"
       inkscape:vp_y="0 : 1000 : 0"
       inkscape:vp_x="0 : 267.5 : 1"
       sodipodi:type="inkscape:persp3d" />
  </defs>
  <sodipodi:namedview
     id="base"
     pagecolor="#ffffff"
     bordercolor="#666666"
     borderopacity="1.0"
     inkscape:pageopacity="0.0"
     inkscape:pageshadow="2"
     inkscape:zoom="1.3035162"
     inkscape:cx="51.32585"
     inkscape:cy="105.12362"
     inkscape:document-units="px"
     inkscape:current-layer="layer1"
     showgrid="false"
     inkscape:window-width="1600"
     inkscape:window-height="876"
     inkscape:window-x="0"
     inkscape:window-y="0"
     inkscape:window-maximized="1" />
  <metadata
     id="metadata8640">
    <rdf:RDF>
      <cc:Work
         rdf:about="">
        <dc:format>image/svg+xml</dc:format>
        <dc:type
           rdf:resource="http://purl.org/dc/dcmitype/StillImage" />
        <dc:title />
      </cc:Work>
    </rdf:RDF>
  </metadata>
  <g
     inkscape:label="Layer 1"
     inkscape:groupmode="layer"
     id="layer1"
     transform="translate(-557.51068,43.493896)">
    <rect
       style="fill:url(#linearGradient11953);fill-opacity:1;fill-rule:nonzero;stroke-width:1;stroke-miterlimit:3.70000005;stroke-dasharray:none;stroke-dashoffset:0"
       id="rect8269"
       width="400"
       height="190"
       x="557.51068"
       y="-43.493896" />
    <g
       id="g1105"
       transform="matrix(6.0682129,0,0,-6.0682129,911.773,-3.5643375)">
      <path
         d="m 0,0 1.234,0 0,2.185 -3.334,0 -5.863,0 -1.074,0 c -1.16,0 -2.1,-0.955 -2.1,-2.129 l 0,-0.056 0,-2.372 0,-2.183 0,-2.374 0,-0.057 c 0,-1.174 0.94,-2.127 2.1,-2.127 l 1.074,0 5.863,0 3.334,0 0,2.184 -1.234,0 -7.963,0 0,2.374 7.963,0 1.234,0 0,2.183 -1.234,0 -7.963,0 0,2.372 L 0,0 z"
         style="fill:#ffffff;fill-opacity:1;fill-rule:nonzero;stroke:none"
         id="path1107" />
    </g>
    <path
       d="m 819.71881,38.685595 -36.57312,0 0,-42.4410812 36.57312,0 0,42.4410812 z m 6.50513,-55.505944 -6.50513,0 -36.57312,0 -19.24837,0 0,13.0648628 0,42.4410812 0,13.046658 19.24837,0 0.99519,0 35.57793,0 6.50513,0 c 7.03912,0 12.75538,-5.783007 12.75538,-12.907089 l 0,-0.139569 0,-42.4410812 0,-0.1517053 c 0,-7.1180135 -5.71626,-12.9131575 -12.75538,-12.9131575"
       style="fill:#ffffff;fill-opacity:1;fill-rule:nonzero;stroke:none"
       id="path1109" />
    <g
       id="g1111"
       transform="matrix(6.0682129,0,0,-6.0682129,615.35536,38.684988)">
      <path
         d="m 0,0 0,9.147 -3.172,0 0,-2.128 0,-7.019 0,-0.023 c 0,-1.174 0.938,-2.127 2.098,-2.127 l 1.074,0 5.865,0 1.092,0 0,0.312 L 6.957,0 0,0 z"
         style="fill:#ffffff;fill-opacity:1;fill-rule:nonzero;stroke:none"
         id="path1113" />
    </g>
    <g
       id="g1119"
       transform="matrix(6.0682129,0,0,-6.0682129,911.773,-3.5643375)">
      <path
         d="m 0,0 1.234,0 0,2.185 -3.334,0 -5.863,0 -1.074,0 c -1.16,0 -2.1,-0.955 -2.1,-2.129 l 0,-0.056 0,-2.372 0,-2.183 0,-2.374 0,-0.057 c 0,-1.174 0.94,-2.127 2.1,-2.127 l 1.074,0 5.863,0 3.334,0 0,2.184 -1.234,0 -7.963,0 0,2.374 7.963,0 1.234,0 0,2.183 -1.234,0 -7.963,0 0,2.372 L 0,0 z"
         style="fill:#ffffff;fill-opacity:1;fill-rule:nonzero;stroke:none"
         id="path1121" />
    </g>
    <path
       d="m 819.71881,38.685595 -36.57312,0 0,-42.4410812 36.57312,0 0,42.4410812 z m 6.50513,-55.505944 -6.50513,0 -36.57312,0 -19.24837,0 0,13.0648628 0,42.4410812 0,13.046658 19.24837,0 0.99519,0 35.57793,0 6.50513,0 c 7.03912,0 12.75538,-5.783007 12.75538,-12.907089 l 0,-0.139569 0,-42.4410812 0,-0.1517053 c 0,-7.1180135 -5.71626,-12.9131575 -12.75538,-12.9131575"
       style="fill:#ffffff;fill-opacity:1;fill-rule:nonzero;stroke:none"
       id="path1123" />
    <g
       id="g1125"
       transform="matrix(6.0682129,0,0,-6.0682129,615.35536,38.684988)">
      <path
         d="m 0,0 0,9.147 -3.172,0 0,-2.128 0,-7.019 0,-0.023 c 0,-1.174 0.938,-2.127 2.098,-2.127 l 1.074,0 5.865,0 1.092,0 0,0.312 L 6.957,0 0,0 z"
         style="fill:#ffffff;fill-opacity:1;fill-rule:nonzero;stroke:none"
         id="path1127" />
    </g>
    <g
       id="g3273"
       transform="matrix(0.31584458,0,0,0.31584458,611.62097,-30.602886)">
      <path
         style="fill-opacity:0.33333297"
         id="path3317"
         d="m 412.16854,218.15914 c -32.92218,-37.16665 -62.59062,-61.17199 -106.50912,1.41811 -26.13347,37.24392 -182.96198,250.60048 -211.739258,284.58514 -8.359192,9.8718 -13.256086,16.73245 -19.674206,20.70907 0.01017,-13.50863 108.330774,-185.04748 138.644754,-234.75889 36.41278,-59.71274 35.25666,-56.22565 30.8992,-56.20985 -6.16876,0.0224 -18.7156,9.1219 -37.79374,29.4689 -34.83788,37.1549 -138.015824,175.43846 -145.129144,173.30562 2.4712,-10.04513 83.183334,-133.81471 119.830134,-185.01447 31.59112,-44.13639 19.51537,-47.50043 1.40813,-43.1917 -77.15068,18.4003 -169.423167,62.88442 -172.40729,61.2795 1.115869,-2.30339 310.76152,-220.045264 352.12641,-224.207914 4.81541,-0.48458 14.97555,-9.07289 33.08083,-16.22615 19.65476,-7.76544 32.88269,-14.08176 36.15504,-12.08482 -14.34334,20.10676 -21.89566,24.15315 -22.02328,30.63895 -0.20898,10.62039 -3.9889,27.8016 -8.12815,33.28741 80.01619,53.304814 111.23482,235.056694 134.09387,381.244334 5.45519,34.69821 10.51065,60.75545 11.79996,76.23862 -6.75375,-17.37777 -70.73144,-248.34052 -134.63414,-320.48186 z" />
      <path
         style="fill-opacity:0.62745098;filter:url(#filter3326)"
         id="path3293"
         d="m 413.66855,218.15915 c -32.92218,-37.16666 -62.59063,-61.172 -106.50912,1.41811 -26.13347,37.24392 -182.96198,250.60048 -211.739265,284.58514 -8.359192,9.8718 -13.256086,16.73245 -19.674206,20.70907 0.01017,-13.50863 108.330781,-185.04748 138.644751,-234.75889 36.41279,-59.71274 35.25668,-56.22565 30.89921,-56.20985 -6.16877,0.0224 -18.71561,9.1219 -37.79375,29.4689 -34.83788,37.1549 -138.015821,175.43845 -145.129141,173.30561 2.4712,-10.04513 83.183331,-133.8147 119.830131,-185.01446 31.59113,-44.13639 19.51538,-47.50043 1.40813,-43.1917 -77.15067,18.4003 -169.42316,62.88442 -172.40729,61.2795 1.11587,-2.30339 310.76152,-220.045274 352.12641,-224.207924 4.81542,-0.48458 14.97556,-9.07289 33.08084,-16.22615 19.65476,-7.76544 32.88269,-14.08176 36.15504,-12.08482 -14.34335,20.10676 -21.89566,24.15315 -22.02329,30.63895 -0.20897,10.62039 -3.98889,27.8016 -8.12815,33.28741 80.0162,53.304814 111.23482,235.056704 134.09388,381.244344 5.45519,34.6982 10.51065,60.75544 11.79995,76.23861 -6.75374,-17.37777 -70.73143,-248.34051 -134.63413,-320.48185 z" />
      <path
         style="fill:#ffffff;stroke:#6e6e6e;stroke-width:1.5"
         id="path3287"
         d="m 409.4182,207.90913 c -32.92218,-37.16666 -62.59062,-61.172 -106.50912,1.41811 -26.13347,37.24392 -182.96198,250.60047 -211.739263,284.58513 -8.359184,9.8718 -13.256078,16.73245 -19.674198,20.70907 0.01017,-13.50863 108.330771,-185.04747 138.644751,-234.75888 36.41278,-59.71274 35.25666,-56.22565 30.8992,-56.20985 -6.16876,0.0224 -18.7156,9.1219 -37.79374,29.4689 -34.83788,37.1549 -138.015821,175.43844 -145.129141,173.3056 2.4712,-10.04512 83.183331,-133.81469 119.830131,-185.01445 31.59112,-44.13639 19.51537,-47.50043 1.40813,-43.1917 C 102.20427,216.62136 9.931786,261.10548 6.947663,259.50056 8.063532,257.19717 317.70918,39.455291 359.07407,35.292641 c 4.81541,-0.48458 14.97555,-9.07289 33.08083,-16.22615 19.65476,-7.76544 32.88269,-14.0817598 36.15504,-12.0848198 -14.34334,20.1067598 -21.89566,24.1531498 -22.02328,30.6389498 -0.20898,10.62039 -3.9889,27.8016 -8.12815,33.28741 80.01619,53.304809 111.23482,235.056699 134.09387,381.244329 5.45519,34.6982 10.51065,60.75544 11.79996,76.23861 C 537.29859,511.0132 473.3209,280.05047 409.4182,207.90913 z" />
      <path
         style="fill:url(#radialGradient4712);filter:url(#filter4871)"
         id="path3431"
         d="m 369.68194,43.72421 c -8.62411,0.84525 -13.87931,1.1176 -19.74075,3.48457 C 321.0342,58.882 295.07449,77.33996 268.25823,93.53775 204.47385,133.64807 142.00159,175.77354 80.111522,218.75514 116.08971,204.76035 152.66026,191.3193 190.79902,184.91139 c 11.59378,0.10725 21.10173,13.52401 15.84375,24.3125 -6.95064,23.78165 -25.54358,41.23517 -38.07947,61.91327 -9.6428,13.81423 -19.10916,27.76671 -28.48303,41.77423 24.8568,-31.05314 49.43716,-62.74855 79.08315,-89.29351 7.18605,-5.66397 15.82806,-12.42042 25.47935,-10.89399 7.4589,1.93798 10.99057,11.74381 6.03125,17.78125 -10.19008,19.34247 -22.74153,37.52193 -33.76459,56.42702 -27.54131,44.62756 -55.31053,88.97785 -82.42291,133.82298 58.31625,-76.66837 81.02078,-100.96809 137.42001,-179.05066 13.06885,-16.48161 67.06234,-84.35427 89.20499,-81.63684 24.86312,3.4436 42.62656,23.67591 57.63497,41.92879 39.6373,49.04976 60.70361,109.4662 83.45878,167.53996 4.5654,12.33697 8.95162,24.73452 13.28125,37.15625 C 501.08748,319.66806 480.13673,235.9727 443.81358,155.09981 419.50847,130.25872 411.77023,120.36297 383.96982,103.05797 380.3438,99.578425 341.4367,130.64903 341.4367,130.64903 l 28.24524,-86.92482 z" />
      <path
         style="fill:url(#radialGradient4832)"
         id="path4752"
         d="M 395.53125,71.90625 C 316.13989,125.13108 243.75709,176.38874 243.21875,177.5 c 2.98412,1.60492 95.25557,-42.88095 172.40625,-61.28125 3.82631,-0.91049 7.37984,-1.46177 10.3125,-1.375 -7.88953,-10.06512 -16.35814,-18.699606 -25.5,-25.59375 -2.97264,-1.38046 -5.70807,-2.925331 -8.125,-4.71875 l 3.21875,-12.625 z M 433.34375,125 c -1.47377,6.81514 -7.14665,17.67114 -19.125,34.40625 -5.17222,7.22618 -11.39801,16.19173 -18,25.8125 5.79552,5.41589 11.12044,11.4193 16.25,17.53125 10.75573,-13.12524 20.28626,-24.39808 27.0625,-31.625 4.71434,-5.02788 9.03029,-9.35446 12.9375,-13.03125 C 446.53509,146.05288 440.17638,134.97553 433.34375,125 z m 26.96875,50.15625 c -4.0287,6.56846 -7.81952,12.73721 -13.90625,22.71875 -4.11332,6.74537 -10.13871,16.50962 -16.75,27.1875 6.24469,9.23936 11.98289,18.79295 17.34375,28.5625 9.81218,-13.29406 19.30125,-26.17044 28.46875,-38.65625 -4.69825,-13.94993 -9.73781,-27.28019 -15.15625,-39.8125 z" />
      <path
         style="fill:#ffffff;filter:url(#filter4638)"
         id="path3279"
         d="M 358.33965,37.660347 C 311.53448,49.208781 15.125,255.25 15.125,255.25 c 0,0 52.96875,-24.4375 52.96875,-24.4375 77.00719,-53.34297 154.43404,-106.50191 234.84375,-154.75 20.83207,-11.523767 40.77455,-25.63294 64,-31.5 C 381.0195,38.319639 394.15978,29.40753 409,24.75 c 0,0 7.30154,-6.701861 13.03125,-11.96875 1.07609,-1.39811 2.17923,-2.8519548 3.34375,-4.4375 -22.45974,7.774558 -62.33068,28.155795 -67.03535,29.316597 z M 198.875,205.84375 c 3.98369,11.98392 -53.17476,77.04509 -135.09375,212.59375 -0.612419,1.08253 -1.026913,1.85872 -1.46875,2.6875 7.227323,-9.10904 54.625,-68.84375 54.625,-68.84375 24.2019,-37.62841 49.64454,-74.34107 75,-111.1875 5.30644,-9.08203 13.15917,-18.17118 12.8125,-29.1875 0.57691,-4.0675 -3.55312,-4.16175 -5.875,-6.0625 z m 49.1875,27.09375 c -3.40763,0.85409 -6.59405,2.5178 -9.84375,3.875 -55.275,91.50517 -112.99659,179.58202 -163.1875,273.09375 C 80.978009,502.03556 114,458.34375 114,458.34375 153.85446,390.27521 196.69611,323.81805 237.8125,256.375 c 3.7599,-7.78083 10.08279,-14.30054 12.625,-22.59375 -0.58594,-0.72021 -1.4309,-0.92513 -2.375,-0.84375 z" />
      <path
         style="fill-opacity:0.2"
         id="path3522"
         d="m 172.8125,159.1875 c -35.14628,23.55564 -69.97861,47.56047 -104.71875,71.625 0,0 -21.651321,10.19324 -39.752369,18.68852 l -6.78125,4.78125 c 29.12189,-11.88499 97.717569,-41.73787 157.783619,-56.06352 18.10724,-4.30873 30.18488,-0.94889 -1.40625,43.1875 -5.89741,8.23936 -13.01746,18.46582 -20.6875,29.6875 5.1161,4.93124 10.22781,10.49365 15.4375,16.375 0.21586,0.24369 0.4404,0.50271 0.65625,0.75 11.96158,-14.66493 22.48964,-27.24844 29.875,-35.125 7.89973,-8.42512 14.67281,-14.87143 20.34375,-19.59375 -14.14074,-31.19507 -30.79349,-56.97595 -50.75,-74.3125 z m 56.9375,88.625 c -4.85852,7.92567 -11.04108,17.95461 -19.625,32.03125 -4.72779,7.75303 -11.7467,19.10079 -19.5625,31.71875 5.60032,8.70619 11.17779,18.39742 16.65625,28.78125 13.10702,-17.73985 25.58955,-34.68927 37.53125,-50.96875 -4.6438,-14.52397 -9.62563,-28.43355 -15,-41.5625 z" />
      <path
         style="fill:url(#radialGradient4841);filter:url(#filter4517)"
         id="path3461"
         d="m 56.749912,231.34053 c 2.20549,-0.90252 3.39165,1.05365 5.6875,0.125 33.95251,-13.73349 76.770088,-26.53957 116.156248,-35.875 5.00268,-1.18575 9.73236,-1.93001 14.59375,-0.96875 2.43069,0.48063 5.02293,1.51171 7.15625,3.53125 2.13332,2.01954 3.98136,-1.0729 4.375,1.78125 0.78728,5.7083 -1.05898,11.26836 -4.59375,18.46875 -3.53477,7.20039 -9.08644,16.00401 -17.25,27.15625 -18.48226,25.24861 -48.1052,69.46453 -73.3125,108.46875 -2.51539,3.89216 -4.08676,6.54621 -6.5,10.3125 3.45584,-4.31935 6.20114,-2.34679 9.78125,-6.84375 31.19405,-39.18264 65.65706,-83.11413 83.6875,-102.34375 9.67316,-10.31651 18.00147,-18.35051 24.96875,-24 6.96728,-5.64949 11.712,-9.62993 18.96875,-9.65625 0.17178,-6.2e-4 0.58043,-0.13495 2.15625,0.0312 0.78791,0.0831 3.60516,-2.60749 3.625,-0.71875 0.0688,6.55194 3.38627,-0.72559 3.6875,0.9375 0.60246,3.32618 -0.30759,4.42404 -0.875,5.75 -0.56741,1.32596 -1.30448,2.67443 -2.3125,4.46875 -4.0321,7.1773 -12.83783,21.25866 -31.03125,51.09375 -15.22203,24.96236 -50.07181,80.64821 -81.15625,131.8125 -10.02832,16.50639 -19.22136,31.83789 -27.65625,46.1875 98.47265,-125.45022 150.65536,-191.62004 172.19253,-226.0478 12.04733,-19.25799 26.62022,-43.94725 41.98039,-66.02389 13.20426,-18.978 33.89172,-22.30979 44.76593,-19.17278 21.74843,6.27403 38.05846,27.14429 52.03125,44.28125 34.57092,42.39957 68.08512,127.73568 105.99865,245.21322 -10.55985,-66.36256 -23.41563,-143.3538 -43.15625,-210.6562 -20.42008,-69.61889 -55.03337,-107.80633 -92.91265,-132.986207 0,0 10.35015,-26.232543 10.35015,-26.232543 81.24692,54.0081 112.25207,240.06424 133.78125,375.8125 9.03413,56.96317 12.04716,70.08905 10.875,76.78125 -49.08574,-156.96151 -90.77178,-264.13642 -131.62229,-312.56521 -25.97695,-30.79601 -61.01465,-71.7644 -109.65896,1.19021 -24.96336,37.43896 -182.84771,249.95284 -211.624998,283.9375 -8.359183,9.8718 -13.39438,17.33588 -19.8125,21.3125 7.042947,-9.99226 108.990628,-179.75581 139.304608,-229.46722 36.41278,-59.71273 35.92785,-63.95483 31.57039,-63.93903 -6.16876,0.0224 -19.76561,11.0905 -38.84375,31.4375 C 167.28703,291.08918 69.051953,423.72973 61.938633,421.59689 66.871306,412.25504 139.1653,299.84264 176.51538,246.00558 207.45435,201.40962 198.8297,192.1103 180.71866,196.40303 103.26784,214.76066 8.2340345,261.1017 5.249912,259.49678 M 236.18741,221.77803 c 0.0324,0.0231 0.0476,0.10751 0,0.21875 -0.0136,0.0318 -0.10777,0.18037 -0.125,0.21875 0.009,-0.047 -0.0106,-0.24651 0,-0.28125 0.043,-0.14114 0.0926,-0.17935 0.125,-0.15625 z" />
      <path
         style="fill:url(#linearGradient4783);filter:url(#filter4773)"
         id="path4714"
         d="m 248.24312,283.84454 c 34.81133,-45.39256 -0.7308,-3.22509 63.83243,-89.91243 12.70425,-15.77478 28.04613,-34.20568 49.48695,-30.55711 25.1887,4.93895 42.13937,26.18806 58.12439,44.56174 34.52407,44.04064 54.29351,97.3743 75.2094,148.93345 8.95694,23.45972 17.38063,47.07477 25.32246,70.87981 -15.14922,-92.51632 -31.2192,-181.30353 -68.90029,-267.74863 -13.89251,-27.15489 -32.46761,-46.5938 -61.81847,-68.811134 0,0 -100.4997,98.274574 -141.25687,192.654304 z" />
      <path
         style="fill:#c2c2c2"
         id="path3523"
         d="m 426.625,7.375 c -0.62726,-0.00425 -1.46755,0.072189 -2.4375,0.28125 -1.9399,0.4181217 -4.4913,1.2618564 -7.5625,2.40625 -6.1424,2.288787 -14.34897,5.800374 -24.1875,9.6875 -9.00183,3.556555 -16.03961,7.49609 -21.4375,10.59375 -5.39789,3.09766 -9.04914,5.406276 -11.84375,5.6875 -4.89293,0.492387 -14.28614,4.313018 -26.6875,10.65625 -12.40136,6.343232 -27.88953,15.206758 -45.3125,25.71875 -34.84595,21.023984 -77.45718,48.69427 -118.8125,76.3125 C 126.98843,176.33698 86.891324,203.88782 57.0625,224.6875 42.148088,235.08734 29.77601,243.82001 21.125,250 c -4.325505,3.08999 -7.72842,5.53151 -10.0625,7.25 -0.399253,0.29395 -0.570272,0.4374 -0.90625,0.6875 0.55271,-0.18948 0.935479,-0.3065 1.625,-0.5625 2.94029,-1.09163 7.083347,-2.7599 12.21875,-4.875 0.08027,-0.0331 0.2005,-0.0917 0.28125,-0.125 C 84.731095,209.18646 325.69769,42.425006 361.90625,38.78125 366.72165,38.296671 376.89472,29.71576 395,22.5625 407.87009,17.477636 417.88708,13.070349 424.25,11.15625 425.13913,9.972026 426.05077,8.7524851 427,7.4375 426.84898,7.4221366 426.80761,7.3762386 426.625,7.375 z M 198.09375,201.96875 c 0.53982,3.18078 -0.46427,7.57542 -3.375,13.78125 -3.05952,6.52306 -8.24268,15.0376 -16.15625,26.09375 -18.3086,25.5792 -47.65559,69.31536 -72.71875,107.90625 -12.531581,19.29544 -23.987383,37.31799 -32.46875,51.125 -4.240684,6.90351 -7.742678,12.75549 -10.25,17.1875 -1.253661,2.21601 -2.273431,4.07899 -3,5.53125 -0.349116,0.69781 -0.410317,0.93696 -0.625,1.4375 0.196384,-0.13502 0.331634,-0.19415 0.5625,-0.375 1.107003,-0.86717 2.602315,-2.25031 4.375,-4.0625 0.982314,-1.00421 2.061565,-2.17772 3.21875,-3.4375 20.31872,-34.79042 82.2654,-129.13562 113.125,-172.25 19.6195,-27.41067 22.36381,-39.05164 17.3125,-42.9375 z m 47.1875,25.15625 c -0.37752,-0.0198 -0.86157,0.0293 -1.40625,0.0312 -0.30241,10e-4 -0.65734,0.046 -1,0.0937 -0.3507,0.69652 -0.78311,1.47496 -1.34375,2.46875 -3.74289,6.63468 -12.54515,20.67741 -30.75,50.53125 -15.16408,24.86734 -49.8207,80.18791 -80.6875,130.96875 -15.4334,25.39042 -29.90846,49.62981 -40.53125,68.375 -5.311395,9.37259 -9.676372,17.37909 -12.6875,23.4375 -1.505564,3.0292 -2.680044,5.58358 -3.46875,7.5625 -0.403637,1.01275 -0.399467,1.36644 -0.59375,2.0625 1.864383,-1.37025 3.656305,-3.01982 5.5,-4.9375 19.69288,-40.60128 107.78669,-180.28079 134.65625,-224.34375 31.86119,-52.24864 34.95512,-56.11165 32.3125,-56.25 z" />
    </g>
  </g>
</svg>
